<?xml version="1.0" encoding="utf-8"?>
<!-- Generator: Adobe Illustrator 24.1.1, SVG Export Plug-In . SVG Version: 6.00 Build 0)  -->
<svg version="1.1" id="Layer_1" xmlns="http://www.w3.org/2000/svg" xmlns:xlink="http://www.w3.org/1999/xlink" x="0px" y="0px"
	 viewBox="0 0 512 512" style="enable-background:new 0 0 512 512;" xml:space="preserve">
<style type="text/css">
	.st0{fill:#673AB8;}
	.st1{fill:#FFFFFF;}
</style>
<g>
	<polygon class="st0" points="256,0 477.7,128 477.7,384 256,512 34.3,384 34.3,128 	"/>
	<path class="st1" d="M94.7,381.9c29.5,37.7,123.1,9,211.6-60.1s139-153,109.5-190.7c-29.5-37.7-123.1-9-211.6,60.1
		S65.2,344.2,94.7,381.9z M107.3,372c-9.8-12.5-5.5-37.1,13.1-68c19.6-32.6,52.9-68.5,93.6-100.3c40.7-31.8,83.7-55.4,120-66.6
		c34.5-10.6,59.4-8.8,69.1,3.7c9.8,12.5,5.5,37.1-13.1,68c-19.6,32.6-52.9,68.5-93.6,100.3c-40.7,31.8-83.7,55.4-120,66.6
		C141.9,386.4,117,384.6,107.3,372z"/>
	<path class="st1" d="M415.8,381.9c29.5-37.7-21.1-121.7-109.5-190.7S124.2,93.3,94.7,131c-29.5,37.7,21.1,121.7,109.5,190.7
		S386.3,419.6,415.8,381.9z M403.2,372c-9.8,12.5-34.6,14.3-69.1,3.7c-36.3-11.2-79.3-34.8-120-66.6c-40.7-31.8-74-67.8-93.6-100.3
		c-18.6-30.9-22.9-55.5-13.1-68c9.8-12.5,34.6-14.3,69.1-3.7c36.3,11.2,79.3,34.8,120,66.6c40.7,31.8,74,67.8,93.6,100.3
		C408.7,335,412.9,359.5,403.2,372z"/>
	<path class="st1" d="M255.2,290.4c18.8,0,34-15.2,34-34c0-18.8-15.2-34-34-34s-34,15.2-34,34C221.3,275.2,236.5,290.4,255.2,290.4z
		"/>
</g>
</svg>
