<?xml version="1.0" encoding="utf-8"?>
<!-- Generator: Adobe Illustrator 24.1.1, SVG Export Plug-In . SVG Version: 6.00 Build 0)  -->
<svg version="1.1" id="Layer_1" xmlns="http://www.w3.org/2000/svg" xmlns:xlink="http://www.w3.org/1999/xlink" x="0px" y="0px"
	 viewBox="0 0 512 512" style="enable-background:new 0 0 512 512;" xml:space="preserve">
<style type="text/css">
	.st0{fill:#00D8FF;}
</style>
<g>
	<path class="st0" d="M421,175.9c-5.3-1.8-10.8-3.6-16.5-5.2c0.9-3.8,1.8-7.6,2.5-11.2c12.5-60.6,4.3-109.4-23.5-125.4
		c-26.7-15.4-70.4,0.7-114.5,39.1c-4.2,3.7-8.5,7.6-12.7,11.7c-2.8-2.7-5.7-5.3-8.5-7.8c-46.2-41.1-92.6-58.4-120.4-42.2
		C100.7,50.1,92.8,96,104,153.4c1.1,5.5,2.4,11.2,3.8,17c-6.6,1.9-12.9,3.8-18.9,6C34.6,195.2,0,224.8,0,255.6
		c0,31.7,37.2,63.6,93.6,82.9c4.5,1.5,9.1,3,13.8,4.3c-1.5,6.2-2.9,12.3-4,18.3c-10.7,56.4-2.3,101.2,24.3,116.5
		c27.5,15.9,73.6-0.4,118.5-39.7c3.5-3.1,7.1-6.4,10.7-9.8c4.6,4.5,9.2,8.7,13.8,12.6c43.5,37.4,86.5,52.6,113.1,37.2
		c27.5-15.9,36.4-64,24.8-122.5c-0.9-4.5-1.9-9-3.1-13.7c3.2-1,6.4-1.9,9.5-3c58.7-19.4,96.9-50.9,96.9-83
		C512,224.7,476.3,194.9,421,175.9z M408.2,317.8c-2.8,0.9-5.7,1.8-8.6,2.7c-6.5-20.5-15.2-42.3-25.9-64.9
		c10.2-22,18.6-43.5,24.9-63.9c5.2,1.5,10.3,3.1,15.2,4.8c47.4,16.3,76.3,40.4,76.3,59C490.1,275.4,458.9,301.1,408.2,317.8z
		 M387.2,359.5c5.1,25.9,5.9,49.3,2.5,67.6c-3,16.4-9.2,27.4-16.8,31.8c-16.1,9.3-50.6-2.8-87.9-34.8c-4.3-3.7-8.6-7.6-12.9-11.7
		c14.4-15.8,28.8-34.1,42.9-54.5c24.8-2.2,48.1-5.8,69.3-10.7C385.5,351.3,386.4,355.5,387.2,359.5z M174.6,457.3
		c-15.8,5.6-28.3,5.7-35.9,1.4c-16.2-9.3-22.9-45.3-13.7-93.5c1-5.5,2.3-11.2,3.7-17c21,4.6,44.2,8,69,10c14.2,19.9,29,38.3,44,54.3
		c-3.3,3.2-6.5,6.2-9.8,9C212,438.7,192.1,451.1,174.6,457.3z M100.7,317.7c-25-8.5-45.6-19.6-59.7-31.7
		c-12.7-10.9-19.1-21.7-19.1-30.4c0-18.6,27.8-42.4,74.2-58.6c5.6-2,11.5-3.8,17.6-5.5c6.4,20.8,14.8,42.6,25,64.7
		c-10.3,22.4-18.8,44.5-25.3,65.6C109,320.4,104.8,319.1,100.7,317.7z M125.5,149.2c-9.6-49.2-3.2-86.3,12.8-95.6
		c17.1-9.9,55,4.2,94.9,39.7c2.6,2.3,5.1,4.6,7.7,7.1c-14.9,16-29.6,34.2-43.6,54c-24.1,2.2-47.1,5.8-68.3,10.6
		C127.6,159.6,126.5,154.4,125.5,149.2z M346.3,203.7c-5.1-8.8-10.3-17.3-15.6-25.6c16.3,2.1,32,4.8,46.7,8.2
		c-4.4,14.1-9.9,28.9-16.4,44.1C356.4,221.6,351.5,212.7,346.3,203.7z M256.2,116c10.1,10.9,20.2,23.1,30.1,36.4
		c-10-0.5-20.2-0.7-30.4-0.7c-10.1,0-20.2,0.2-30.1,0.7C235.8,139.3,246,127.1,256.2,116z M165.6,203.9c-5.1,8.8-9.9,17.6-14.5,26.5
		c-6.4-15.1-11.8-30-16.3-44.3c14.6-3.3,30.2-5.9,46.4-8C175.9,186.5,170.7,195.1,165.6,203.9L165.6,203.9z M181.8,334.6
		c-16.8-1.9-32.6-4.4-47.2-7.6c4.5-14.6,10.1-29.8,16.6-45.2c4.6,8.9,9.4,17.7,14.5,26.5h0C170.9,317.3,176.3,326,181.8,334.6z
		 M256.8,396.7c-10.4-11.2-20.7-23.6-30.8-36.9c9.8,0.4,19.8,0.6,30,0.6c10.4,0,20.8-0.2,30.9-0.7
		C276.9,373.2,266.9,385.6,256.8,396.7z M361.2,281c6.8,15.6,12.6,30.7,17.2,45c-14.8,3.4-30.9,6.1-47.8,8.1
		c5.3-8.4,10.6-17.1,15.7-26.1C351.6,299.1,356.6,290.1,361.2,281z M327.4,297.2c-8,13.9-16.2,27.1-24.6,39.6
		c-15.2,1.1-30.9,1.6-46.9,1.6c-15.9,0-31.4-0.5-46.4-1.5c-8.7-12.7-17.1-26-25-39.7h0c-7.9-13.7-15.2-27.5-21.8-41.3
		c6.6-13.8,13.9-27.6,21.8-41.3l0,0c7.9-13.7,16.2-26.9,24.8-39.5c15.2-1.2,30.8-1.8,46.6-1.8h0c15.9,0,31.5,0.6,46.7,1.8
		c8.5,12.5,16.7,25.7,24.7,39.4c8,13.9,15.4,27.6,22.1,41.1C342.8,269.5,335.4,283.4,327.4,297.2z M372.6,53
		c17.1,9.9,23.8,49.8,13,102.1c-0.7,3.3-1.5,6.7-2.3,10.2c-21.2-4.9-44.3-8.5-68.5-10.8c-14.1-20-28.6-38.2-43.3-54
		c3.9-3.8,7.9-7.4,11.8-10.8C321.1,56.7,356.5,43.7,372.6,53z M256,209.8c25.3,0,45.7,20.5,45.7,45.7c0,25.3-20.5,45.7-45.7,45.7
		s-45.7-20.5-45.7-45.7C210.3,230.3,230.8,209.8,256,209.8z"/>
</g>
</svg>
