<?xml version="1.0" encoding="utf-8"?>
<!-- Generator: Adobe Illustrator 24.1.1, SVG Export Plug-In . SVG Version: 6.00 Build 0)  -->
<svg version="1.1" id="Layer_1" xmlns="http://www.w3.org/2000/svg" xmlns:xlink="http://www.w3.org/1999/xlink" x="0px" y="0px"
	 viewBox="0 0 512 512" style="enable-background:new 0 0 512 512;" xml:space="preserve">
<style type="text/css">
	.st0{fill:#764ABC;}
</style>
<g>
	<path class="st0" d="M354.8,352.4c18.9-2,33.2-18.2,32.6-37.8c-0.7-19.5-16.9-35.2-36.5-35.2h-1.3c-20.2,0.7-35.8,17.6-35.2,37.8
		c0.7,9.8,4.6,18.2,10.4,24.1c-22.2,43.7-56,75.6-106.9,102.3c-34.5,18.2-70.4,24.8-106.2,20.2c-29.3-3.9-52.1-16.9-66.5-38.4
		c-20.8-31.9-22.8-66.5-5.2-101c12.4-24.8,31.9-43,44.3-52.1c-2.6-8.5-6.5-22.8-8.5-33.2c-94.5,68.4-84.7,160.9-56,204.6
		c21.5,32.6,65.2,52.8,113.4,52.8c13,0,26.1-1.3,39.1-4.6C255.7,475.6,318.9,426.1,354.8,352.4z M469.4,271.6
		c-49.5-58-122.5-89.9-205.9-89.9h-10.4c-5.9-11.7-18.2-19.5-31.9-19.5h-1.3c-20.2,0.7-35.8,17.6-35.2,37.8
		c0.7,19.5,16.9,35.2,36.5,35.2h1.3c14.3-0.7,26.7-9.8,31.9-22.2h11.7c49.5,0,96.4,14.3,138.8,42.4c32.6,21.5,56,49.5,69.1,83.4
		c11.1,27.4,10.4,54.1-1.3,76.9c-18.2,34.5-48.9,53.4-89.3,53.4c-26.1,0-50.8-7.8-63.9-13.7c-7.2,6.5-20.2,16.9-29.3,23.5
		c28,13,56.7,20.2,84,20.2c62.5,0,108.8-34.5,126.4-69.1C519.6,392.2,518.3,327,469.4,271.6z M138.4,363.5
		c0.7,19.5,16.9,35.2,36.5,35.2h1.3c20.2-0.7,35.8-17.6,35.2-37.8c-0.7-19.5-16.9-35.2-36.5-35.2h-1.3c-1.3,0-3.3,0-4.6,0.7
		c-26.7-44.3-37.8-92.5-33.9-144.6c2.6-39.1,15.6-73,38.4-101c18.9-24.1,55.4-35.8,80.1-36.5c69.1-1.3,98.4,84.7,100.3,119.2
		c8.5,2,22.8,6.5,32.6,9.8C378.9,67.7,313.7,13,251.2,13c-58.6,0-112.7,42.4-134.2,104.9c-30,83.4-10.4,163.5,26.1,226.7
		C139.8,349.2,137.8,356.3,138.4,363.5z"/>
</g>
</svg>
